<svg width="172" height="50" viewBox="0 0 172 50" fill="none" xmlns="http://www.w3.org/2000/svg">
<path d="M25 0L30.749 13.0622L44.5458 9.41276L37.9178 22.0516L49.3732 30.563L35.3593 33.2612L35.8471 47.5242L25 38.25L14.1529 47.5242L14.6407 33.2612L0.626802 30.563L12.0822 22.0516L5.45421 9.41276L19.251 13.0622L25 0Z" fill="#FD6488"/>
<path d="M86 0L91.749 13.0622L105.546 9.41276L98.9178 22.0516L110.373 30.563L96.3593 33.2612L96.8471 47.5242L86 38.25L75.1529 47.5242L75.6407 33.2612L61.6268 30.563L73.0822 22.0516L66.4542 9.41276L80.251 13.0622L86 0Z" fill="#FD6488"/>
<path d="M147 0L152.749 13.0622L166.546 9.41276L159.918 22.0516L171.373 30.563L157.359 33.2612L157.847 47.5242L147 38.25L136.153 47.5242L136.641 33.2612L122.627 30.563L134.082 22.0516L127.454 9.41276L141.251 13.0622L147 0Z" fill="#FD6488"/>
</svg>
