<svg width="390" height="165" viewBox="0 0 390 165" fill="none" xmlns="http://www.w3.org/2000/svg">
<path d="M7.36099 80C7.99612 68.3862 7.99612 28.1008 7.36099 16.487H45.8317C63.2524 16.487 73.596 25.2881 73.596 39.0795C73.596 52.8709 63.2524 61.672 45.8317 61.672H35.1253C35.1253 67.6603 35.3067 73.7394 35.4882 80H7.36099ZM35.0345 45.4308H36.3048C40.297 45.4308 46.7391 45.1586 46.7391 39.0795C46.7391 33.0004 40.297 32.7282 36.3048 32.7282H35.1253L35.0345 45.4308ZM87.2471 81.6332C78.6275 81.6332 72.3669 75.5541 72.3669 67.2067C72.3669 58.8592 78.6275 53.2338 87.8822 53.2338C93.054 53.2338 97.137 54.6855 99.9497 57.4982C99.1331 53.3245 94.5057 50.5118 87.8822 50.5118C82.8012 50.5118 78.3553 51.9635 74.9074 54.5948V37.8092C80.4422 33.0004 88.7896 30.2784 97.8629 30.2784C115.556 30.2784 124.811 38.2629 124.811 53.6875C124.811 56.4095 124.448 61.2183 124.448 65.6642C124.448 71.834 124.992 77.1873 125.899 80H101.039C100.676 78.3668 100.313 75.917 100.222 74.2838H99.7683C97.5907 78.8205 93.417 81.6332 87.2471 81.6332ZM90.5135 66.3901C90.5135 68.4769 92.2374 69.8379 94.8687 69.8379C97.5907 69.8379 99.4053 67.9325 99.9497 64.6661C98.4073 63.3959 96.8648 62.8515 95.0501 62.8515C92.1467 62.8515 90.5135 64.1217 90.5135 66.3901ZM145.286 81.6332C137.211 81.6332 130.859 79.1834 126.504 75.3726V59.4944C130.496 63.6681 138.209 65.9364 143.108 65.9364C145.739 65.9364 146.556 65.5735 146.556 64.8476C146.556 64.031 145.558 63.7588 142.927 63.2144L140.386 62.67C134.035 61.309 126.141 58.587 126.141 48.8786C126.141 38.0814 135.214 30.2784 149.006 30.2784C157.807 30.2784 164.612 33.0004 167.697 35.9946V50.784C164.612 47.9713 157.353 45.8844 152.272 45.8844C150.095 45.8844 149.278 46.2474 149.278 47.064C149.278 47.8806 150.185 48.2435 153.542 48.7879L156.718 49.3323C163.614 50.6025 169.693 52.6894 169.693 62.7608C169.693 74.8282 159.077 81.6332 145.286 81.6332ZM189.136 81.6332C181.061 81.6332 174.71 79.1834 170.354 75.3726V59.4944C174.347 63.6681 182.059 65.9364 186.958 65.9364C189.59 65.9364 190.406 65.5735 190.406 64.8476C190.406 64.031 189.408 63.7588 186.777 63.2144L184.236 62.67C177.885 61.309 169.991 58.587 169.991 48.8786C169.991 38.0814 179.065 30.2784 192.856 30.2784C201.657 30.2784 208.462 33.0004 211.547 35.9946V50.784C208.462 47.9713 201.204 45.8844 196.122 45.8844C193.945 45.8844 193.128 46.2474 193.128 47.064C193.128 47.8806 194.036 48.2435 197.393 48.7879L200.568 49.3323C207.464 50.6025 213.543 52.6894 213.543 62.7608C213.543 74.8282 202.927 81.6332 189.136 81.6332Z" fill="#F7BAE3"/>
<path d="M238.619 80C239.164 68.2955 239.164 43.979 238.619 32.3652H259.76C259.216 43.979 259.216 68.2955 259.76 80H238.619ZM238.256 28.4637C238.529 23.8364 238.529 17.9387 238.256 13.3113C244.971 13.765 253.318 13.765 260.032 13.3113C259.76 17.9387 259.76 23.8364 260.032 28.4637C253.318 28.0101 244.971 28.0101 238.256 28.4637ZM286.233 81.5425C276.978 81.5425 268.994 77.1873 268.994 66.8437C268.994 60.7646 269.72 54.2319 269.81 47.064H263.64V32.3652H270.355L269.992 25.3788L291.768 16.2148L290.044 32.3652H298.936V47.064H289.862C289.59 51.6006 289.409 55.0485 289.681 58.0426C289.953 62.2164 291.858 63.5773 294.762 63.5773C296.032 63.5773 297.302 63.3959 298.936 62.7608V77.6409C295.851 80 291.677 81.5425 286.233 81.5425Z" fill="#F7BAE3"/>
<path d="M62.3451 109.447C55.5401 108.721 48.0093 108.268 40.66 108.268L38.6638 115.617C44.8337 115.617 51.0035 115.526 57.3548 115.164L52.0923 134.58C45.8317 134.217 39.8434 134.127 33.6735 134.127C31.7681 141.748 30.0442 148.553 29.0462 153.09H0.918959C5.27414 139.208 14.8918 103.459 17.9767 89.5768H67.6984L62.3451 109.447ZM81.7514 154.723C69.4117 154.723 55.5296 147.827 55.5296 132.856C55.5296 118.248 67.4156 103.368 87.5583 103.368C99.898 103.368 113.78 110.264 113.78 125.235C113.78 139.843 101.894 154.723 81.7514 154.723ZM83.0217 136.123C87.1046 136.123 89.2822 129.136 89.2822 125.689C89.2822 123.239 88.1027 121.968 86.288 121.968C82.2051 121.968 80.0275 128.955 80.0275 132.403C80.0275 134.853 81.207 136.123 83.0217 136.123ZM108.467 153.09C113.004 138.21 117.631 120.789 121.351 105.001H141.131C140.587 108.54 139.952 112.079 138.409 118.067H139.317C142.129 108.903 146.938 103.368 152.926 103.368C154.741 103.368 156.284 104.094 156.919 105.183L150.023 130.951C148.934 129.862 147.301 129.409 145.759 129.409C142.583 129.409 139.679 131.768 137.502 139.843C136.141 144.833 135.234 149.279 134.78 153.09H108.467ZM156.659 153.09C157.385 136.939 157.657 120.97 157.294 105.001H180.613C179.524 111.625 178.798 118.339 178.163 124.872H178.707C181.792 118.339 184.696 111.625 187.236 105.001H207.016C206.109 111.625 205.383 118.339 204.929 124.872H205.383C208.196 118.339 210.736 111.625 212.823 105.001H236.595C227.703 120.97 219.356 136.939 211.462 153.09H187.871C188.96 145.831 189.595 140.206 189.958 132.493H189.505C185.603 140.206 183.153 145.831 180.341 153.09H156.659ZM237.848 154.723C231.224 154.723 223.965 150.731 223.965 141.658C223.965 133.219 230.226 126.324 240.66 126.324C245.832 126.324 250.55 128.048 253.363 131.858C253.454 125.779 247.102 123.602 241.386 123.602C236.487 123.602 233.039 125.326 230.589 126.868L234.944 110.899C238.12 107.179 245.832 103.368 255.994 103.368C274.231 103.368 282.76 114.71 278.496 130.679C277.679 133.764 275.865 139.571 274.957 142.746C274.05 146.194 273.415 150.549 273.778 153.09H250.097C249.915 151.457 250.097 149.007 250.459 147.374H250.006C247.919 150.822 244.471 154.723 237.848 154.723ZM242.656 139.843C242.656 142.02 244.562 142.928 246.286 142.928C248.826 142.928 250.732 141.295 251.911 138.391C250.55 136.758 248.917 135.941 246.921 135.941C243.382 135.941 242.656 138.3 242.656 139.843ZM274.929 153.09C279.466 138.21 284.093 120.789 287.813 105.001H307.593C307.049 108.54 306.413 112.079 304.871 118.067H305.778C308.591 108.903 313.4 103.368 319.388 103.368C321.203 103.368 322.745 104.094 323.38 105.183L316.485 130.951C315.396 129.862 313.763 129.409 312.22 129.409C309.045 129.409 306.141 131.768 303.964 139.843C302.603 144.833 301.695 149.279 301.242 153.09H274.929ZM333.359 154.723C326.191 154.723 317.481 150.096 317.481 135.76C317.481 120.517 327.28 103.368 342.977 103.368C350.054 103.368 354.863 106.816 356.314 111.625H356.768C359.218 102.279 360.76 96.2003 363.029 85.9475H389.341C382.536 108.177 376.003 132.766 371.376 153.09H347.241C347.423 150.549 347.967 147.737 348.33 146.194H347.876C345.245 150.549 340.255 154.723 333.359 154.723ZM347.423 136.123C351.596 136.123 353.774 129.136 353.774 125.779C353.774 123.239 352.594 121.968 350.87 121.968C346.697 121.968 344.519 128.955 344.519 132.312C344.519 134.853 345.699 136.123 347.423 136.123Z" fill="#FF5C39"/>
</svg>
